PathFileType	4	(X/Y/Z)	C:/Users/beibeiliu/ov580/test_trc\sequence.12_training_dense_left.trc
DataRate	CameraRate	NumFrames	NumMarkers	Units	OrigDataRate	OrigDataStartFrame	OrigNumFrames
120	120	17	19	mm	120	203	324
Frame#	Time	ThumbCMC			ThumbMCP			ThumbIP			ThumbTip			IndexMCP			IndexPIP			IndexTip			MiddleMCP			MiddlePIP			MiddleTip			RingMCP			RingPIP			RingTip			PinkyMCP			PinkyPIP			PinkyTip			BackHand1			BackHand2			BackHand3	
		X0	Y0	Z0	X1	Y1	Z1	X2	Y2	Z2	X3	Y3	Z3	X4	Y4	Z4	X5	Y5	Z5	X6	Y6	Z6	X7	Y7	Z7	X8	Y8	Z8	X9	Y9	Z9	X10	Y10	Z10	X11	Y11	Z11	X12	Y12	Z12	X13	Y13	Z13	X14	Y14	Z14	X15	Y15	Z15	X16	Y16	Z16	X17	Y17	Z17	X18	Y18	Z18	
202	1.68333	-274.162	27.2335	9.12927	-258.897	50.3746	14.0352	-252.517	70.6281	16.007	-248.305	89.7685	19.1339	-218.936	42.8451	-27.8203	-196.096	60.3878	-31.239	-177.132	70.098	-24.4239	-202.972	21.4457	-28.5613	-174.374	32.6982	-32.7542	-151.17	35.8006	-26.0399	-196.187	4.75056	-18.624	-175.394	10.3033	-19.3095	-154.252	18.3113	-16.0462	-192.683	-16.7802	0.526172	-178.59	-16.2174	3.89188	-158.076	-14.8362	7.79078	-237.196	-10.6188	-11.4179	-262.123	-21.7442	-3.50946	-259.254	4.82781	-13.1162	
203	1.69167	-268.113	34.3431	6.76029	-252.805	56.0113	14.8147	-242.037	74.0985	15.929	-232.918	86.4692	16.7766	-211.441	37.0914	-27.9831	-191.208	51.6039	-29.9654	-167.647	58.9852	-21.7076	-201.277	14.4376	-27.5367	-173.45	21.7411	-31.3474	-148.885	27.1579	-24.969	-197.544	-6.25154	-16.0953	-170.878	0.228242	-17.6792	-149.577	2.02983	-14.3353	-202.773	-23.6867	0.22962	-181.181	-25.6693	4.44135	-165.06	-25.9526	7.3078	-239.719	-14.1553	-11.6766	-266.62	-22.9622	-2.8064	-261.667	10.4775	-13.8801	
204	1.7	-262.4	33.7307	5.89363	-244.596	53.9225	13.4789	-232.15	66.507	15.8319	-219.289	85.4446	15.0407	-203.583	35.339	-28.5431	-179.277	37.7146	-27.1927	-156.886	45.7006	-17.34	-198.61	4.36281	-27.0808	-173.359	6.74436	-29.7744	-146.329	6.50876	-21.0279	-199.792	-11.4481	-17.0286	-172.613	-12.8658	-16.3467	-155.196	-13.4728	-12.6418	-208.307	-31.3554	0.693823	-189.097	-36.1747	5.88044	-172.02	-42.3064	10.6866	-245.44	-11.8108	-12.6573	-270.592	-14.4669	-4.24295	-262.223	10.2561	-15.0462	
205	1.70833	-256.156	39.7634	4.2868	-238.626	51.4109	13.674	-217.829	65.0424	12.5559	-209.1	80.4862	14.0164	-201.089	24.9697	-27.0106	-173.267	31.192	-26.1232	-151.446	30.7852	-16.4251	-196.831	-0.334501	-28.1747	-170.407	-6.61207	-28.1827	-142.843	-7.80444	-18.7181	-198.729	-23.2813	-16.3745	-174.897	-26.695	-14.9493	-157.026	-24.1437	-12.902	-208.419	-38.8243	0.191717	-194.833	-45.4777	7.56365	-178.728	-52.1301	8.86531	-246.612	-13.1666	-14.8727	-271.601	-15.8606	-3.95377	-259.055	10.1282	-15.5817	
206	1.71667	-247.613	38.0106	2.9456	-227.6	48.713	12.1192	-207.77	58.4149	12.2773	-193.076	75.5814	11.9341	-193.591	15.3097	-26.8172	-164.942	19.2843	-24.1717	-144.417	19.0692	-14.2727	-192.246	-7.85357	-27.4746	-167.707	-18.224	-25.6802	-142.752	-19.5646	-17.3193	-201.678	-28.1067	-14.9856	-176.684	-33.4425	-14.8116	-154.891	-38.5931	-7.99767	-215.361	-40.8739	1.72172	-197.332	-51.5517	7.35152	-179.001	-62.4559	10.5058	-244.922	-13.1311	-15.429	-272.748	-12.2268	-5.45936	-251.815	13.5725	-17.2946	
207	1.725	-242.814	37.6344	2.88393	-219.809	47.1159	12.6434	-198.182	56.4141	11.545	-185.344	68.842	13.5497	-186.287	11.785	-26.7897	-162.415	11.1973	-23.389	-141.892	7.36639	-12.9526	-189.85	-15.0736	-26.6476	-166.735	-24.7925	-25.8228	-141.121	-32.9725	-15.523	-197.963	-28.4784	-17.0906	-179.214	-41.5269	-13.1348	-157.986	-43.7446	-8.80783	-215.692	-47.075	1.97648	-201.138	-57.6548	6.36585	-183.903	-68.2597	12.1729	-243.585	-12.439	-14.7361	-267.776	-8.14342	-9.4276	-250.813	13.9918	-16.3949	
208	1.73333	-237.671	38.7	4.46922	-211.761	42.2807	11.6009	-190.478	53.0209	13.2949	-172.674	62.2538	15.1989	-183.185	4.99582	-26.0146	-156.791	3.89017	-23.3881	-138.593	-3.79683	-12.7961	-190.739	-18.6927	-26.6729	-165.061	-29.9789	-24.8047	-140.665	-43.8118	-13.1707	-201.59	-34.8979	-17.5406	-175.147	-43.1534	-15.8322	-156.383	-52.2248	-10.2161	-213.753	-45.673	-5.09192	-197.984	-58.9298	1.09205	-187.413	-67.9818	3.15108	-243.522	-11.1849	-14.6668	-266.923	-4.95738	-8.85594	-245.807	13.6393	-17.0642	
209	1.74167	-231.379	37.8893	4.97736	-208.527	41.5495	13.9386	-181.481	45.9019	14.0436	-166.896	52.2539	16.5925	-182.816	3.16231	-25.3093	-157.206	-6.80116	-22.0911	-137.176	-17.5239	-11.3935	-190.159	-23.8166	-26.6057	-164.958	-38.166	-24.5409	-141.683	-48.0686	-14.7993	-200.847	-33.5437	-20.2496	-179.367	-45.8847	-19.3809	-158.319	-57.2332	-12.9134	-217.386	-48.2797	-6.40819	-203.514	-61.934	-2.61768	-186.053	-73.4959	-0.871433	-242.109	-11.3269	-17.7431	-260.074	0.444696	-12.6859	-243.31	16.1329	-18.5456	
210	1.75	-223.117	36.6343	3.52108	-201.124	37.3275	15.2348	-177.84	37.4431	16.2447	-158.25	44.5845	19.1934	-175.424	-0.523251	-25.9213	-152.354	-12.9399	-21.7542	-138.734	-26.577	-11.7178	-187.038	-26.6917	-27.2086	-167.885	-39.6461	-24.8567	-145.4	-59.4189	-11.4927	-202.157	-38.7386	-20.7611	-182.192	-48.614	-19.7566	-163.252	-61.436	-13.9076	-222.281	-49.0067	-9.70294	-206.783	-63.5711	-6.36592	-190.837	-74.7345	-5.71181	-241.812	-6.50724	-19.6605	-263.211	4.18724	-10.6124	-234.482	17.9396	-19.3041	
211	1.75833	-220.571	34.093	5.82216	-194.167	30.5351	15.153	-171.221	32.1231	18.9073	-156.503	32.9512	22.6299	-174.118	-6.52229	-25.6185	-156.929	-22.0667	-22.0091	-139.354	-39.0394	-10.0701	-191.123	-30.3893	-27.401	-171.356	-46.1896	-25.3408	-151.987	-67.5524	-10.5918	-203.436	-42.9612	-23.1291	-184.67	-56.9877	-21.3748	-166.848	-70.1358	-13.5909	-223.075	-50.9601	-12.06	-212.526	-62.9439	-8.53092	-198.631	-76.8011	-8.10251	-240.652	-9.95883	-20.733	-258.946	4.72848	-13.147	-230.835	21.2819	-20.336	
212	1.76667	-212.672	35.96	6.23484	-191.618	32.0585	18.2211	-168.351	23.7861	19.7887	-152.534	22.2407	24.3578	-176.684	-13.5452	-24.6617	-158.97	-29.1443	-22.622	-143.045	-45.6729	-10.6755	-192.501	-30.1959	-27.1017	-178.246	-56.1382	-24.5886	-158.976	-72.9732	-10.2153	-209.519	-42.0953	-22.779	-190.411	-61.8124	-20.808	-178.048	-74.2286	-14.2582	-230.424	-46.2032	-10.5014	-220.387	-65.6657	-8.95042	-211.406	-81.8295	-4.30068	-242.785	-8.3092	-17.7092	-260.574	9.83612	-12.3117	-230.928	15.8197	-17.2892	
213	1.775	-213.14	30.8026	7.16206	-186.71	25.0545	19.8696	-166.982	14.0363	19.9749	-144.89	12.4988	23.8356	-179.385	-22.8681	-25.5063	-162.231	-38.307	-22.7391	-152.973	-56.1131	-11.7038	-196.855	-40.9039	-28.284	-184.792	-60.7215	-26.5905	-172.58	-81.6353	-9.32545	-217.055	-45.1415	-21.8266	-200.785	-66.2719	-22.0505	-187.005	-79.6243	-15.1132	-235.241	-48.5498	-9.2553	-227.005	-68.2301	-8.83636	-220.448	-87.7574	-5.8371	-243.442	-8.42711	-16.1173	-257.912	11.2425	-8.98771	-228.075	19.6159	-15.4308	
214	1.78333	-206.858	28.2446	8.85015	-182.933	14.6495	19.6344	-163.927	4.66212	22.0215	-147.908	0.546505	26.4708	-182.25	-26.9078	-25.8288	-170.364	-47.4774	-22.3829	-156.656	-65.6874	-8.2091	-203.523	-39.4759	-28.105	-187.405	-66.7848	-27.0462	-176.999	-86.0284	-9.32924	-223.813	-45.8247	-21.1969	-212.85	-67.4097	-23.6449	-198.348	-87.1839	-15.16	-242.592	-46.8356	-8.88694	-237.929	-69.4417	-9.04859	-233.173	-89.4813	-8.01364	-241.42	-6.01626	-16.5797	-253.565	15.6539	-6.90386	-227.414	17.6403	-16.2303	
215	1.79167	-202.913	22.1826	10.9987	-181.456	9.1978	21.5005	-162.946	-3.04302	23.96	-148.458	-9.0826	27.7571	-189.973	-28.5665	-23.8531	-177.965	-52.2986	-23.7574	-168.286	-71.3369	-11.2634	-210.843	-44.4333	-29.084	-200.632	-67.043	-30.2643	-189.235	-93.18	-12.9023	-227.075	-47.0998	-24.042	-223.734	-68.6662	-24.3878	-210.298	-86.9501	-21.3523	-250.015	-45.3748	-9.15083	-247.067	-62.8366	-11.6951	-244.462	-84.8553	-14.1891	-243.375	-4.03942	-11.8836	-250.691	22.1119	-5.04317	-222.908	16.5824	-14.9837	
216	1.8	-200.294	22.4021	14.8416	-178.838	0.339652	23.3189	-162.692	-10.2509	25.8517	-147.06	-22.0006	27.3291	-191.662	-32.6494	-24.8541	-182.483	-60.1557	-23.4291	-174.986	-78.1852	-14.3043	-212.87	-40.8024	-29.0277	-207.898	-70.7991	-33.1777	-205.509	-96.787	-20.7895	-233.288	-41.2962	-20.9601	-231.335	-67.3523	-25.9899	-222.092	-88.5314	-26.3586	-251.788	-39.6388	-10.9534	-253.998	-56.7759	-13.6778	-253.885	-77.7389	-19.6685	-239.606	0.941458	-11.7672	-248.951	21.6297	-1.03202	-220.941	17.3554	-10.3477	
217	1.80833	-191.013	14.2795	16.6587	-177.011	-7.07016	25.6385	-164.733	-19.4948	28.5142	-151.021	-32.9938	28.9782	-192.453	-36.7411	-24.7911	-188.953	-59.0391	-25.7099	-181.135	-82.6088	-16.7931	-217.926	-44.5872	-31.4215	-215.773	-68.037	-35.423	-216.527	-95.4777	-31.1574	-237.235	-41.5896	-23.2771	-240.002	-62.2968	-28.2556	-232.606	-86.463	-32.5661	-255.312	-33.0824	-8.61585	-263.047	-50.7448	-13.254	-264.122	-72.043	-21.0388	-237.814	4.14553	-10.2415	-242.808	26.511	3.69928	-216.915	17.4917	-7.43706	
218	1.81667	-189.743	8.31372	18.55	-178.737	-12.4468	27.7489	-165.888	-30.3191	27.199	-152.236	-42.9332	29.932	-197.387	-38.1485	-24.8475	-195.38	-61.844	-27.2322	-190.331	-87.039	-21.0386	-224.29	-42.0247	-32.337	-225.701	-64.3415	-37.3701	-227.809	-93.8953	-38.1982	-242.584	-35.0553	-22.6169	-244.17	-59.1526	-33.0644	-245.856	-77.7444	-36.0972	-260.786	-26.7349	-7.29746	-265.566	-47.2625	-15.9723	-273.718	-63.74	-23.7763	-236.691	6.79513	-7.7819	-239.444	28.5388	3.90984	-213.885	19.5914	-5.35101	
